HIERARCHY
ROOT Hips
{
    OFFSET   0.000000   0.000000   0.000000
    CHANNELS 6 Xposition Yposition Zposition Zrotation Xrotation Yrotation
    JOINT Chest
    {
        OFFSET   0.000000   8.007240   0.000000
        CHANNELS 3 Zrotation Xrotation Yrotation
        JOINT Chest2
        {
            OFFSET   0.000000  22.077100   0.000000
            CHANNELS 3 Zrotation Xrotation Yrotation
            JOINT Neck
            {
                OFFSET   0.000000  23.254800   0.000000
                CHANNELS 3 Zrotation Xrotation Yrotation
                JOINT Head
                {
                    OFFSET   0.000000  14.370000   1.956600
                    CHANNELS 3 Zrotation Xrotation Yrotation
                    End Site
                    {
                        OFFSET   0.000000  19.566000   0.000000
                    }
                }
            }
            JOINT LeftCollar
            {
                OFFSET   3.911900  19.017000  -0.467064
                CHANNELS 3 Zrotation Xrotation Yrotation
                JOINT LeftShoulder
                {
                    OFFSET  10.383700   0.000000   0.000000
                    CHANNELS 3 Zrotation Xrotation Yrotation
                    JOINT LeftElbow
                    {
                        OFFSET  26.662100   0.001476   0.000517
                        CHANNELS 3 Zrotation Xrotation Yrotation
                        JOINT LeftWrist
                        {
                            OFFSET  28.869000  -0.000025  -0.000106
                            CHANNELS 3 Zrotation Xrotation Yrotation
                            JOINT LeftFinger0
                            {
                                OFFSET   2.044660  -2.323460   3.252850
                                CHANNELS 3 Zrotation Xrotation Yrotation
                                JOINT LeftFinger01
                                {
                                    OFFSET   3.088130   0.000000   0.000000
                                    CHANNELS 3 Zrotation Xrotation Yrotation
                                    JOINT LeftFinger02
                                    {
                                        OFFSET   2.639460   0.000000   0.000000
                                        CHANNELS 3 Zrotation Xrotation Yrotation
                                        End Site
                                        {
                                            OFFSET   2.582190   0.000000   0.000000
                                        }
                                    }
                                }
                            }
                            JOINT LeftFinger1
                            {
                                OFFSET   8.364480   0.000000   3.252850
                                CHANNELS 3 Zrotation Xrotation Yrotation
                                JOINT LeftFinger11
                                {
                                    OFFSET   4.646930   0.000000   0.000000
                                    CHANNELS 3 Zrotation Xrotation Yrotation
                                    JOINT LeftFinger12
                                    {
                                        OFFSET   2.323460   0.000000   0.000000
                                        CHANNELS 3 Zrotation Xrotation Yrotation
                                        End Site
                                        {
                                            OFFSET   2.273050   0.000000   0.000000
                                        }
                                    }
                                }
                            }
                            JOINT LeftFinger2
                            {
                                OFFSET   8.364490   0.000015   1.078090
                                CHANNELS 3 Zrotation Xrotation Yrotation
                                JOINT LeftFinger21
                                {
                                    OFFSET   5.111620   0.000000   0.000000
                                    CHANNELS 3 Zrotation Xrotation Yrotation
                                    JOINT LeftFinger22
                                    {
                                        OFFSET   2.788160   0.000016   0.000000
                                        CHANNELS 3 Zrotation Xrotation Yrotation
                                        End Site
                                        {
                                            OFFSET   2.727660   0.000000   0.000000
                                        }
                                    }
                                }
                            }
                            JOINT LeftFinger3
                            {
                                OFFSET   7.899780   0.000017  -1.078090
                                CHANNELS 3 Zrotation Xrotation Yrotation
                                JOINT LeftFinger31
                                {
                                    OFFSET   4.646930   0.000000   0.000000
                                    CHANNELS 3 Zrotation Xrotation Yrotation
                                    JOINT LeftFinger32
                                    {
                                        OFFSET   2.323470   0.000000   0.000000
                                        CHANNELS 3 Zrotation Xrotation Yrotation
                                        End Site
                                        {
                                            OFFSET   2.273050   0.000000   0.000000
                                        }
                                    }
                                }
                            }
                            JOINT LeftFinger4
                            {
                                OFFSET   7.435090   0.000000  -3.252850
                                CHANNELS 3 Zrotation Xrotation Yrotation
                                JOINT LeftFinger41
                                {
                                    OFFSET   3.717550   0.000000   0.000000
                                    CHANNELS 3 Zrotation Xrotation Yrotation
                                    JOINT LeftFinger42
                                    {
                                        OFFSET   1.858770   0.000000   0.000000
                                        CHANNELS 3 Zrotation Xrotation Yrotation
                                        End Site
                                        {
                                            OFFSET   1.818440   0.000000   0.000000
                                        }
                                    }
                                }
                            }
                        }
                    }
                }
            }
            JOINT RightCollar
            {
                OFFSET  -3.911900  19.017000  -0.467063
                CHANNELS 3 Zrotation Xrotation Yrotation
                JOINT RightShoulder
                {
                    OFFSET -10.383700   0.000019   0.000000
                    CHANNELS 3 Zrotation Xrotation Yrotation
                    JOINT RightElbow
                    {
                        OFFSET -26.662100   0.001175   0.000102
                        CHANNELS 3 Zrotation Xrotation Yrotation
                        JOINT RightWrist
                        {
                            OFFSET -28.869000   0.000016  -0.000079
                            CHANNELS 3 Zrotation Xrotation Yrotation
                            JOINT RightFinger0
                            {
                                OFFSET  -2.044660  -2.323490   3.252850
                                CHANNELS 3 Zrotation Xrotation Yrotation
                                JOINT RightFinger01
                                {
                                    OFFSET  -3.088140   0.000000   0.000000
                                    CHANNELS 3 Zrotation Xrotation Yrotation
                                    JOINT RightFinger02
                                    {
                                        OFFSET  -2.639460   0.000000   0.000000
                                        CHANNELS 3 Zrotation Xrotation Yrotation
                                        End Site
                                        {
                                            OFFSET  -2.582190   0.000000   0.000000
                                        }
                                    }
                                }
                            }
                            JOINT RightFinger1
                            {
                                OFFSET  -8.364480   0.000000   3.252850
                                CHANNELS 3 Zrotation Xrotation Yrotation
                                JOINT RightFinger11
                                {
                                    OFFSET  -4.646930   0.000000   0.000000
                                    CHANNELS 3 Zrotation Xrotation Yrotation
                                    JOINT RightFinger12
                                    {
                                        OFFSET  -2.323470   0.000000   0.000000
                                        CHANNELS 3 Zrotation Xrotation Yrotation
                                        End Site
                                        {
                                            OFFSET  -2.273050   0.000000   0.000000
                                        }
                                    }
                                }
                            }
                            JOINT RightFinger2
                            {
                                OFFSET  -8.364480   0.000000   1.078090
                                CHANNELS 3 Zrotation Xrotation Yrotation
                                JOINT RightFinger21
                                {
                                    OFFSET  -5.111620   0.000000   0.000000
                                    CHANNELS 3 Zrotation Xrotation Yrotation
                                    JOINT RightFinger22
                                    {
                                        OFFSET  -2.788160   0.000000   0.000000
                                        CHANNELS 3 Zrotation Xrotation Yrotation
                                        End Site
                                        {
                                            OFFSET  -2.727660   0.000000   0.000000
                                        }
                                    }
                                }
                            }
                            JOINT RightFinger3
                            {
                                OFFSET  -7.899780   0.000000  -1.078090
                                CHANNELS 3 Zrotation Xrotation Yrotation
                                JOINT RightFinger31
                                {
                                    OFFSET  -4.646930   0.000000   0.000000
                                    CHANNELS 3 Zrotation Xrotation Yrotation
                                    JOINT RightFinger32
                                    {
                                        OFFSET  -2.323470   0.000000   0.000000
                                        CHANNELS 3 Zrotation Xrotation Yrotation
                                        End Site
                                        {
                                            OFFSET  -2.273050   0.000000   0.000000
                                        }
                                    }
                                }
                            }
                            JOINT RightFinger4
                            {
                                OFFSET  -7.435090   0.000000  -3.252850
                                CHANNELS 3 Zrotation Xrotation Yrotation
                                JOINT RightFinger41
                                {
                                    OFFSET  -3.717550   0.000000   0.000000
                                    CHANNELS 3 Zrotation Xrotation Yrotation
                                    JOINT RightFinger42
                                    {
                                        OFFSET  -1.858770   0.000000   0.000000
                                        CHANNELS 3 Zrotation Xrotation Yrotation
                                        End Site
                                        {
                                            OFFSET  -1.818440   0.000000   0.000000
                                        }
                                    }
                                }
                            }
                        }
                    }
                }
            }
        }
    }
    JOINT LeftHip
    {
        OFFSET   9.783040   0.000000   0.000000
        CHANNELS 3 Zrotation Xrotation Yrotation
        JOINT LeftKnee
        {
            OFFSET   0.000032 -41.789100  -0.002222
            CHANNELS 3 Zrotation Xrotation Yrotation
            JOINT LeftAnkle
            {
                OFFSET   0.000087 -41.133200  -0.000135
                CHANNELS 3 Zrotation Xrotation Yrotation
                JOINT LeftToe
                {
                    OFFSET   0.000000  -6.358960  14.674500
                    CHANNELS 3 Zrotation Xrotation Yrotation
                    End Site
                    {
                        OFFSET   0.000000   0.000000   3.913200
                    }
                }
            }
        }
    }
    JOINT RightHip
    {
        OFFSET  -9.783040   0.000000   0.000000
        CHANNELS 3 Zrotation Xrotation Yrotation
        JOINT RightKnee
        {
            OFFSET   0.000047 -41.789100  -0.000896
            CHANNELS 3 Zrotation Xrotation Yrotation
            JOINT RightAnkle
            {
                OFFSET  -0.000117 -41.133300  -0.000248
                CHANNELS 3 Zrotation Xrotation Yrotation
                JOINT RightToe
                {
                    OFFSET   0.000000  -6.358970  14.674500
                    CHANNELS 3 Zrotation Xrotation Yrotation
                    End Site
                    {
                        OFFSET   0.000000   0.000000   3.913200
                    }
                }
            }
        }
    }
}
MOTION
Frames: 5
Frame Time:   0.016667
 -1.040320  89.512100  -2.977370  -1.835540  -1.711350   3.842170   1.110740   2.404500  -2.058060   2.310290   4.767060  -4.167870   1.142030  -1.364740   0.028682   1.869870  -2.766910   9.152490  -7.822140   0.097103   0.065412 -69.534100  16.329900  -3.637270  -3.053000  -9.680480  -8.464190   2.219550 -11.512400   9.773820  43.491500  34.904400 -64.421600 -27.027800   0.001491   0.003459  -8.502220   0.003567  -0.000838 -32.220700   5.523850  -8.684020 -26.705800   0.001435  -0.003956 -18.693100  -0.001036  -0.005227 -28.485500   0.846702  -1.559690 -36.164000   0.002243  -0.007190 -24.085200   0.004389  -0.006837 -28.155000  -2.532360   4.719250 -33.879100   0.003131  -0.006945 -22.563500   0.004176  -0.006202 -31.416900  -2.797090   4.567550 -47.294100   0.004631  -0.000532 -31.497900   0.005866  -0.000625   5.880670  -0.245150   9.613380  73.803300   2.980810   1.226640  -0.630317  -4.897210   9.694510 -11.663100 -11.648300   7.029210 -45.275500  30.994600  67.303900  17.370600   0.008812  -0.005245   3.672990   0.006018  -0.003994  32.203000   6.881610  10.775300  26.879400   0.000079   0.006647  18.815600  -0.001489   0.004400  28.662900   4.353470   7.905790  43.445800  -0.004183   0.006870  28.934900   0.001709   0.002507  28.725800   2.144220   3.905610  42.500800   0.006296   0.002520  28.305500   0.007545   0.002753  37.557200  -0.387456  -0.504479  56.338300   0.007488   0.008137  37.521300   0.006540   0.006826   2.658450   2.971590   1.823670   2.093440   0.045170   5.178630  -0.919900  -0.841499   2.687950  -0.000000   0.000000   0.000000   3.030250  -0.151478  -2.719570   0.948163   4.415680 -10.587600  -2.111370  -3.034520  -4.624080  -0.000000   0.000000   0.000000
 -1.054260  89.512100  -2.969290  -1.834360  -1.720740   3.867650   1.110650   2.411660  -2.058160   2.310320   4.781370  -4.168270   1.142030  -1.364740   0.028623   1.873580  -2.766670   9.147550  -7.817340   0.091820   0.065346 -69.508100  16.335100  -3.652140  -3.052110  -9.673950  -8.464580   2.230900 -11.520400   9.783080  43.500300  34.910200 -64.430600 -27.019600   0.001489   0.003458  -8.501780   0.003567  -0.000832 -32.211000   5.529960  -8.696700 -26.698600   0.001434  -0.003954 -18.693100  -0.001036  -0.005224 -28.484900   0.858013  -1.580530 -36.162500   0.002243  -0.007187 -24.084300   0.004387  -0.006834 -28.157200  -2.519720   4.695510 -33.883300   0.003130  -0.006942 -22.566300   0.004172  -0.006199 -31.420100  -2.783300   4.544450 -47.296500   0.004628  -0.000525 -31.499500   0.005863  -0.000622   5.881690  -0.249685   9.613340  73.815800   2.974920   1.206230  -0.610327  -4.901500   9.680590 -11.651100 -11.621700   7.024570 -45.294100  30.990200  67.297600  17.364600   0.008807  -0.005252   3.672980   0.006022  -0.003988  32.178900   6.883160  10.784700  26.860600   0.000078   0.006644  18.802400  -0.001495   0.004400  28.648900   4.358150   7.918390  43.425500  -0.004186   0.006866  28.921400   0.001704   0.002507  28.724900   2.151090   3.918200  42.468700   0.006297   0.002515  28.284100   0.007541   0.002752  37.543000  -0.387521  -0.504526  56.316900   0.007485   0.008133  37.507100   0.006536   0.006822   2.665820   2.969540   1.823520   2.094070   0.069195   5.178150  -0.929069  -0.855538   2.665770  -0.000000   0.000000  -0.000000   3.042040  -0.118666  -2.733750   0.941615   4.386130 -10.591900  -2.119660  -3.030920  -4.631450   0.000000   0.000000   0.000000
 -1.076630  89.512100  -2.955060  -1.832250  -1.736060   3.909820   1.110740   2.423470  -2.058270   2.311030   4.804970  -4.168720   1.142040  -1.364740   0.028524   1.879880  -2.766450   9.140650  -7.810300   0.083125   0.065244 -69.466200  16.344300  -3.676550  -3.051170  -9.663540  -8.468000   2.250180 -11.531700   9.798940  43.510700  34.918900 -64.443800 -27.011400   0.001487   0.003456  -8.501340   0.003562  -0.000827 -32.200400   5.539170  -8.714400 -26.691400   0.001434  -0.003948 -18.693100  -0.001036  -0.005218 -28.484200   0.869324  -1.601370 -36.161100   0.002244  -0.007178 -24.083300   0.004381  -0.006826 -28.159300  -2.507070   4.671760 -33.894600   0.003125  -0.006935 -22.573800   0.004166  -0.006190 -31.426200  -2.769510   4.521360 -47.303300   0.004622  -0.000507 -31.504000   0.005856  -0.000613   5.883090  -0.256491   9.613310  73.834500   2.962900   1.173110  -0.579879  -4.905940   9.656760 -11.637400 -11.595100   7.017440 -45.312700  30.985700  67.291300  17.354900   0.008796  -0.005264   3.672960   0.006030  -0.003982  32.153900   6.886400  10.798900  26.840900   0.000072   0.006640  18.788600  -0.001500   0.004399  28.633600   4.367080   7.939660  43.405200  -0.004192   0.006859  28.907800   0.001689   0.002505  28.723300   2.162530   3.939120  42.436500   0.006297   0.002501  28.262700   0.007531   0.002750  37.528700  -0.387640  -0.504612  56.295600   0.007472   0.008124  37.492900   0.006528   0.006813   2.676810   2.967500   1.823380   2.094700   0.093220   5.177670  -0.942455  -0.869588   2.628300   0.000000   0.000000   0.000000   3.063480  -0.059915  -2.757490   0.927973   4.330580 -10.603200  -2.133380  -3.022830  -4.638790   0.000000   0.000000   0.000000
 -1.092430  89.512200  -2.941930  -1.828960  -1.747820   3.943970   1.111240   2.432650  -2.058230   2.312530   4.823320  -4.168760   1.145130  -1.367730   0.028429   1.886140  -2.771550   9.137770  -7.806570   0.076557   0.065166 -69.436500  16.351700  -3.695320  -3.047070  -9.656810  -8.477250   2.269100 -11.535400   9.810830  43.507500  34.925300 -64.451100 -27.014200   0.001482   0.003461  -8.504640   0.003546  -0.000827 -32.207300   5.545480  -8.721780 -26.696600   0.001433  -0.003938 -18.693100  -0.001038  -0.005209 -28.484300   0.867057  -1.597050 -36.185100   0.002246  -0.007165 -24.099300   0.004370  -0.006813 -28.159200  -2.509060   4.675020 -33.918500   0.003113  -0.006927 -22.589700   0.004157  -0.006175 -31.436400  -2.772150   4.524210 -47.318800   0.004613  -0.000479 -31.514300   0.005844  -0.000599   5.883620  -0.259860   9.615770  73.846400   2.947830   1.149360  -0.563330  -4.895890   9.634990 -11.637200 -11.595100   7.011460 -45.305400  30.986100  67.291900  17.346100   0.008785  -0.005268   3.672890   0.006042  -0.003992  32.152100   6.890870  10.807400  26.840300   0.000033   0.006639  18.788200  -0.001476   0.004386  28.634900   4.377850   7.958790  43.410000  -0.004198   0.006854  28.911900   0.001667   0.002500  28.721900   2.172300   3.956950  42.438600   0.006297   0.002477  28.264000   0.007521   0.002744  37.533200  -0.387790  -0.504727  56.299800   0.007444   0.008112  37.497300   0.006525   0.006798   2.682240   2.986830   1.823740   2.094020   0.070223   5.178050  -0.948804  -0.858111   2.595810  -0.000000   0.000000  -0.000000   3.084330  -0.002268  -2.777530   0.911017   4.270590 -10.622100  -2.143900  -3.011440  -4.635190  -0.000000   0.000000   0.000000
 -1.107700  89.512200  -2.928230  -1.824360  -1.758770   3.975630   1.112370   2.441730  -2.057830   2.314980   4.841430  -4.168390   1.150140  -1.373330   0.028366   1.892960  -2.781680   9.136890  -7.804130   0.069808   0.065124 -69.407000  16.361200  -3.713600  -3.041000  -9.649680  -8.488400   2.282880 -11.539500   9.826530  43.502200  34.929900 -64.453000 -27.020400   0.001479   0.003470  -8.510210   0.003522  -0.000827 -32.215200   5.548680  -8.724150 -26.704500   0.001433  -0.003925 -18.693100  -0.001041  -0.005197 -28.484700   0.860872  -1.585490 -36.209200   0.002248  -0.007148 -24.115300   0.004356  -0.006795 -28.158600  -2.513770   4.683310 -33.935400   0.003098  -0.006915 -22.601000   0.004146  -0.006155 -31.443300  -2.777850   4.531880 -47.329900   0.004600  -0.000442 -31.521700   0.005827  -0.000581   5.883850  -0.263311   9.622760  73.853000   2.931770   1.124950  -0.549627  -4.880760   9.615040 -11.636500 -11.595100   7.007970 -45.294000  30.988700  67.295700  17.341000   0.008770  -0.005278   3.672850   0.006057  -0.004006  32.150700   6.895190  10.813600  26.839800   0.000000   0.006639  18.787800  -0.001452   0.004372  28.637400   4.387570   7.975110  43.415100  -0.004206   0.006848  28.916000   0.001636   0.002494  28.720700   2.180700   3.972300  42.440600   0.006297   0.002446  28.265400   0.007507   0.002735  37.537700  -0.387887  -0.504802  56.304800   0.007408   0.008098  37.501700   0.006519   0.006778   2.685910   3.016660   1.824240   2.092810   0.036011   5.178440  -0.953496  -0.841477   2.565620  -0.000000   0.000000   0.000000   3.107430   0.056035  -2.796140   0.891363   4.207650 -10.644200  -2.155080  -2.998660  -4.628590   0.000000   0.000000   0.000000
